<svg xmlns="http://www.w3.org/2000/svg" width="512" height="512"><path d="M482 233.539V117.007c0-49.626-40.374-90-90-90h-94.5c-5.523 0-10 4.477-10 10s4.477 10 10 10H392c38.598 0 70 31.402 70 70v106.005a73.657 73.657 0 00-24-4.017h-2v-57.333c0-21.321-17.346-38.667-38.667-38.667H284.667c-11.358 0-21.586 4.924-28.667 12.747-7.081-7.823-17.309-12.747-28.667-12.747H114.667C93.346 122.995 76 140.341 76 161.661v57.333h-2c-8.4 0-16.468 1.427-24 4.017V117.007c0-38.598 31.402-70 70-70h96.5c5.523 0 10-4.477 10-10s-4.477-10-10-10H120c-49.626 0-90 40.374-90 90V233.54c-18.188 13.495-30 35.12-30 59.456v128c0 5.523 4.477 10 10 10h20v44c0 5.523 4.477 10 10 10h54.012c5.523 0 10-4.477 10-10v-44h303.976v44c0 5.523 4.477 10 10 10H472c5.523 0 10-4.477 10-10v-44h20c5.523 0 10-4.477 10-10v-128c0-24.337-11.812-45.962-30-59.457zm-216-71.878c0-10.293 8.374-18.667 18.667-18.667h112.667c10.293 0 18.667 8.374 18.667 18.667v57.333H266v-57.333zm-170 0c0-10.293 8.374-18.667 18.667-18.667h112.667c10.293 0 18.667 8.374 18.667 18.667v57.333H96v-57.333zM84.012 464.995H50v-34h34.012v34zm377.988 0h-34.012v-34H462v34zm30-102H91.921c-5.523 0-10 4.477-10 10s4.477 10 10 10H492v28h-19.758c-.081-.002-.16-.012-.242-.012h-54.012c-.082 0-.161.01-.242.012H94.254c-.081-.002-.16-.012-.242-.012H40c-.082 0-.161.01-.242.012H20v-118c0-29.776 24.224-54 54-54h364c29.776 0 54 24.224 54 54v70z" fill="#acacac" data-original="#000000" xmlns="http://www.w3.org/2000/svg"/><path d="M263.07 29.935c-1.86-1.86-4.44-2.93-7.07-2.93s-5.21 1.07-7.07 2.93-2.93 4.44-2.93 7.07 1.07 5.21 2.93 7.07 4.44 2.93 7.07 2.93 5.21-1.07 7.07-2.93 2.93-4.43 2.93-7.07c0-2.63-1.07-5.211-2.93-7.07zM59.15 365.924a10.076 10.076 0 00-7.07-2.93c-2.64 0-5.21 1.07-7.07 2.93s-2.93 4.44-2.93 7.07 1.07 5.21 2.93 7.07c1.86 1.86 4.44 2.93 7.07 2.93s5.21-1.07 7.07-2.93c1.86-1.86 2.93-4.44 2.93-7.07s-1.07-5.21-2.93-7.07z" fill="#acacac" data-original="#000000" xmlns="http://www.w3.org/2000/svg"/></svg>