<svg xmlns="http://www.w3.org/2000/svg" width="512" height="512" viewBox="0 0 448 448"><g xmlns="http://www.w3.org/2000/svg" fill="#acacac"><path d="M280 307.999h-15.997a8 8 0 000 16H280a8 8 0 000-16z" data-original="#000000"/><path d="M396 164c-1.347 0-2.678.068-4 .169V68c0-30.879-25.122-56-56-56H112c-30.878 0-56 25.121-56 56v96.169a52.417 52.417 0 00-4-.169c-28.673 0-52 23.327-52 52 0 17.936 9.079 34.304 24 43.815v105.518c0 .358.032.709.078 1.055C25.318 387.335 42.746 404 64 404v8c0 13.233 10.766 24 24 24s24-10.767 24-24v-8h224v8c0 13.233 10.766 24 24 24s24-10.767 24-24v-8c21.254 0 38.682-16.665 39.922-37.612.046-.346.078-.697.078-1.055V259.815c14.921-9.512 24-25.88 24-43.815 0-28.673-23.327-52-52-52zM72 68c0-22.056 17.944-40 40-40h224c22.056 0 40 17.944 40 40v100.005c-18.773 7.853-32 26.406-32 47.995v36.022A39.788 39.788 0 00320 244H128a39.788 39.788 0 00-24 8.022V216c0-21.589-13.227-40.142-32-47.995V68zm24 344c0 4.411-3.589 8-8 8s-8-3.589-8-8v-8h16v8zm272 0c0 4.411-3.589 8-8 8s-8-3.589-8-8v-8h16v8zm44.358-163.936a8 8 0 00-4.358 7.123V364c0 13.233-10.766 24-24 24H64c-13.234 0-24-10.767-24-24V255.188a8 8 0 00-4.358-7.123C23.526 241.869 16 229.583 16 216c0-19.851 16.149-36 36-36s36 16.149 36 36v68.002c.001 22.055 17.944 39.997 40 39.997h103.998a8 8 0 000-16H128c-13.233 0-24-10.766-24-23.999s10.767-24 24-24h192c13.233 0 24 10.767 24 24s-10.767 23.999-24 23.999h-8a8 8 0 000 16h8c22.055 0 39.999-17.942 40-39.997V216c0-19.851 16.149-36 36-36s36 16.149 36 36c0 13.583-7.526 25.869-19.642 32.064z" data-original="#000000"/></g></svg>