<svg xmlns="http://www.w3.org/2000/svg" width="512" height="512" viewBox="0 0 511.999 511.999"><path d="M185.396 257.561a7.5 7.5 0 00-7.5 7.5v12.778a7.5 7.5 0 0015 0v-12.778a7.5 7.5 0 00-7.5-7.5zm141.203 0a7.5 7.5 0 00-7.5 7.5v12.778a7.5 7.5 0 0015 0v-12.778a7.5 7.5 0 00-7.5-7.5zm-48.24 13.742a7.5 7.5 0 00-10.583.711c-2.858 3.271-7.151 5.146-11.779 5.146-4.627 0-8.92-1.875-11.778-5.146a7.5 7.5 0 10-11.294 9.872c5.707 6.529 14.117 10.274 23.072 10.274 8.956 0 17.366-3.745 23.073-10.274a7.5 7.5 0 00-.711-10.583z" fill="#acacac" data-original="#000000" xmlns="http://www.w3.org/2000/svg"/><circle cx="221.121" cy="90.979" r="11.539" fill="#acacac" data-original="#000000" xmlns="http://www.w3.org/2000/svg"/><path d="M384.444 233.319h-83.189c-1.479-21.027-5.943-40.327-12.788-54.944-4.074-8.702-12.935-14.325-22.575-14.325h-2.977c-1.071-20.424-3.764-35.12-8.621-46.757 6.625-4.325 11.212-11.254 12.496-19.364 1.508-9.519-1.799-18.905-8.721-25.317-.735-6.25-3.478-12.009-7.92-16.508-5.385-5.454-12.843-8.582-20.463-8.582a27.96 27.96 0 00-13.755 3.614 28.338 28.338 0 00-5.567-.555c-9.086 0-17.725 4.484-23.11 11.996-4.641 6.474-6.304 14.323-4.762 22.009-4.563 8.177-4.837 18.061-.553 26.603 4.344 8.663 12.586 14.395 22.017 15.522 5.355 5.813 12.749 9.082 20.791 9.083 6.76 0 13.04-2.333 17.995-6.336 2.72 8.908 4.362 20.045 5.155 34.593h-1.79c-9.641-.002-18.502 5.62-22.577 14.322-6.843 14.617-11.308 33.917-12.788 54.945h-83.189c-19.25 0-34.911 15.661-34.911 34.911v23.035c0 10.822 8.802 19.626 19.622 19.626 6.842 0 12.804-.15 19.097 3.173 12.9 6.813 28.636 6.733 41.537-.037 8.587-4.506 19.077-4.505 27.663 0a44.959 44.959 0 0020.803 5.141 44.67 44.67 0 0011.415-1.509v85.772c0 .016-.132 1.663-4.866 4.965-4.432 3.092-10.788 6.201-17.518 9.492-10.702 5.234-21.769 10.646-29.638 17.943-5.034 4.668-6.669 11.807-4.167 18.188 2.493 6.355 8.521 10.461 15.355 10.461h128.108c6.834 0 12.862-4.106 15.355-10.461 2.503-6.381.867-13.52-4.167-18.188-7.869-7.296-18.935-12.708-29.637-17.943-6.73-3.291-13.086-6.4-17.518-9.492-4.733-3.302-4.866-4.949-4.866-4.965v-85.771a44.656 44.656 0 0011.414 1.509c7.2 0 14.394-1.778 20.803-5.141 8.583-4.504 19.081-4.503 27.663 0 12.788 6.711 28.612 6.862 41.536.037a29.955 29.955 0 0117.019-3.282c11.43 1.208 21.7-8.047 21.7-19.517V268.23c-.001-19.25-15.662-34.911-34.911-34.911zM242.65 106.355c-3.116.969-5.667 3.709-5.827 7.136-2.671 5.336-7.981 7.3-12.08 7.3-2.578 0-7.426-.743-10.94-5.711-1.473-2.082-3.897-3.187-6.413-3.168-5.202 0-9.705-2.785-12.044-7.451-2.338-4.661-1.871-9.939 1.249-14.12a7.497 7.497 0 001.092-6.894c-2.863-8.441 3.547-17.87 12.676-17.87 1.474 0 2.968.253 4.441.752a7.5 7.5 0 006.894-1.092c2.384-1.779 5.146-2.72 7.987-2.72 7.515 0 13.677 6.231 13.582 13.71a7.502 7.502 0 003.169 6.219c8.989 6.359 6.676 20.657-3.786 23.909zm-5.537 78.377c1.617-3.453 5.146-5.685 8.99-5.685h19.787c3.845.001 7.374 2.232 8.99 5.685 5.974 12.758 9.931 29.792 11.345 48.584h-60.457c1.415-18.795 5.372-35.826 11.345-48.584zm57.898 246.629c9.725 4.756 19.782 9.675 26.028 15.467.195.181.787.729.402 1.711-.368.939-1.138.939-1.391.939H191.944c-.253 0-1.022 0-1.391-.939-.385-.981.207-1.53.402-1.711 6.247-5.792 16.303-10.71 26.028-15.467 15.836-7.745 30.793-15.06 30.793-27.932v-91.638a17.1 17.1 0 01.303-.084c5.249-1.445 10.905-1.426 16.138.085v91.638c.001 12.871 14.959 20.186 30.794 27.931zm109.343-140.097c0 2.72-2.436 4.886-5.13 4.599-8.77-.921-17.796.817-25.594 4.936-8.563 4.523-19.006 4.435-27.561-.055-12.909-6.775-28.695-6.774-41.604 0-8.532 4.478-19.042 4.526-27.665 0-12.775-6.705-28.811-6.715-41.604 0-8.494 4.458-19.039 4.527-27.665 0-12.902-6.771-28.704-6.77-41.604 0-8.563 4.494-18.992 4.581-27.561.055-7.798-4.119-16.828-5.858-25.592-4.936a4.636 4.636 0 01-5.131-4.599v-23.035c0-10.979 8.932-19.911 19.911-19.911h256.892c10.978 0 19.91 8.932 19.91 19.911-.002 0-.002 22.979-.002 23.035z" fill="#acacac" data-original="#000000" xmlns="http://www.w3.org/2000/svg"/><path d="M495.708 159.829l-22.554-2.452c-9.89-1.075-19.058 6.32-20.13 16.183l-11.303 103.987a7.5 7.5 0 0014.913 1.621l11.303-103.987a3.265 3.265 0 013.597-2.892l22.554 2.452a3.267 3.267 0 012.892 3.597l-19.797 182.129a14.585 14.585 0 01-14.521 13.028H346.361v-13.877c-.003-8.458 6.878-15.338 15.335-15.338h81.128a7.5 7.5 0 007.456-6.689l3.114-28.645a7.5 7.5 0 10-14.913-1.621l-2.387 21.956h-74.399c-16.728 0-30.337 13.609-30.337 30.337v21.377a7.5 7.5 0 007.5 7.5h8.221v60.208c0 8.698 7.077 15.774 15.775 15.774h13.796c8.698 0 15.775-7.076 15.775-15.774v-60.208h32.387v60.208c0 8.698 7.077 15.774 15.775 15.774h13.797c8.698 0 15.775-7.076 15.775-15.774V387.53a29.558 29.558 0 0021.934-25.443l19.797-182.129c1.089-10.011-6.171-19.041-16.182-20.129zM377.426 448.703a.775.775 0 01-.775.774h-13.796a.775.775 0 01-.775-.774v-60.208h15.346v60.208zm77.734 0a.775.775 0 01-.775.774h-13.797a.775.775 0 01-.775-.774v-60.208h15.347v60.208zM150.298 329.28H75.899l-9.772-89.898a7.5 7.5 0 00-14.913 1.621l10.499 96.587a7.5 7.5 0 007.456 6.689h81.128c8.457 0 15.337 6.88 15.337 15.337v13.877h-116.3a14.585 14.585 0 01-14.521-13.028L15.016 178.336c-.182-1.674 1.078-3.4 2.892-3.597l22.554-2.452a3.267 3.267 0 013.597 2.892l3.894 35.823a7.497 7.497 0 008.267 6.646 7.5 7.5 0 006.646-8.267l-3.894-35.823c-1.074-9.882-10.256-17.256-20.13-16.183l-22.554 2.452C6.392 160.903-.971 170.058.105 179.957l19.797 182.13a29.556 29.556 0 0021.934 25.443v61.172c0 8.698 7.077 15.774 15.775 15.774h13.796c8.698 0 15.775-7.076 15.775-15.774v-60.208h32.387v60.208c0 8.698 7.076 15.774 15.774 15.774h13.797c8.698 0 15.775-7.076 15.775-15.774v-60.208h8.22a7.5 7.5 0 007.5-7.5v-21.377c.001-16.728-13.609-30.337-30.337-30.337zM72.182 448.703a.775.775 0 01-.775.774H57.61a.775.775 0 01-.775-.774v-60.208h15.347v60.208zm77.733 0a.775.775 0 01-.775.774h-13.797a.775.775 0 01-.774-.774v-60.208h15.346v60.208z" fill="#acacac" data-original="#000000" xmlns="http://www.w3.org/2000/svg"/></svg>