<svg xmlns="http://www.w3.org/2000/svg" width="512" height="512" viewBox="0 0 512.035 512.035"><path xmlns="http://www.w3.org/2000/svg" d="M451.147 163.616c-7.289-7.944-17.235-12.954-27.853-14.176L376.59 40.176A66.11 66.11 0 00315.724 0H196.311a66.11 66.11 0 00-60.866 40.176L88.74 149.44c-10.617 1.222-20.562 6.232-27.852 14.175a44.81 44.81 0 00-11.598 34.05l11.916 138.421c1.019 11.836 9.184 21.278 20.079 24.29v23.676c0 4.142 3.357 7.5 7.5 7.5s7.5-3.358 7.5-7.5v-22.66h38.796l-31.969 133.776a2.423 2.423 0 01-2.364 1.867h-2.032a2.434 2.434 0 01-2.431-2.431v-78.589c0-4.142-3.357-7.5-7.5-7.5s-7.5 3.358-7.5 7.5v78.589c0 9.611 7.819 17.431 17.431 17.431h2.032c8.1 0 15.07-5.502 16.954-13.38l32.802-137.263h155.424c4.143 0 7.5-3.358 7.5-7.5s-3.357-7.5-7.5-7.5H138.512v-17.205h235.012v17.205h-35.633c-4.143 0-7.5 3.358-7.5 7.5s3.357 7.5 7.5 7.5h23.639l32.802 137.264a17.376 17.376 0 0016.954 13.379h2.032c9.611 0 17.431-7.82 17.431-17.431V360.376c10.895-3.012 19.06-12.454 20.079-24.29l11.916-138.42a44.802 44.802 0 00-11.597-34.05zM149.238 46.071A51.13 51.13 0 01196.311 15h119.412a51.128 51.128 0 0147.073 31.071l44.623 104.394c-19.444 4.842-33.897 22.445-33.897 43.367v54.471H207.401c-4.143 0-7.5 3.358-7.5 7.5s3.357 7.5 7.5 7.5h174.356c7.825 0 14.191 6.366 14.191 14.191v22.5c0 7.826-6.366 14.192-14.191 14.192h-251.48c-7.825 0-14.191-6.366-14.191-14.192v-22.5c0-7.825 6.366-14.191 14.191-14.191h45.161c4.143 0 7.5-3.358 7.5-7.5s-3.357-7.5-7.5-7.5h-36.927v-54.471c0-20.921-14.453-38.524-33.897-43.367zM76.152 334.8L64.236 196.378c-.723-8.386 2.014-16.42 7.705-22.622 5.68-6.191 13.433-9.604 21.832-9.617l.054-.001c16.369.004 29.685 13.323 29.685 29.693v55.271c-12.844 3.061-22.426 14.624-22.426 28.391v22.5c0 13.767 9.582 25.331 22.426 28.392v18.005H88.786c-6.634.002-12.065-4.982-12.634-11.59zm337.166 162.235h-2.032a2.423 2.423 0 01-2.364-1.866l-31.969-133.777h38.796v133.212a2.434 2.434 0 01-2.431 2.431zm34.481-300.656l-11.916 138.42c-.568 6.609-6 11.593-12.634 11.593h-34.726v-18.005c12.844-3.061 22.426-14.625 22.426-28.392v-22.5c0-13.767-9.582-25.331-22.426-28.391v-55.271c0-16.367 13.311-29.683 29.676-29.692l.021.002.025-.001c8.406.008 16.166 3.422 21.85 9.617 5.69 6.2 8.426 14.234 7.704 22.62z" fill="#acacac" data-original="#000000"/></svg>