<svg xmlns="http://www.w3.org/2000/svg" width="512" height="512"><g xmlns="http://www.w3.org/2000/svg" fill="#acacac"><path d="M247.467 324.267A8.53 8.53 0 00256 332.8c4.719 0 8.533-3.823 8.533-8.533s-3.814-8.533-8.533-8.533a8.53 8.53 0 00-8.533 8.533zM128 119.467h8.533v25.6c0 4.71 3.814 8.533 8.533 8.533s8.533-3.823 8.533-8.533v-25.6h145.067a8.53 8.53 0 008.533-8.533c0-48.879-37.564-89.105-85.333-93.431v-8.97c0-4.71-3.814-8.533-8.533-8.533S204.8 3.823 204.8 8.533v8.969c-47.77 4.326-85.333 44.552-85.333 93.431a8.53 8.53 0 008.533 8.534zm85.333-85.334c39.467 0 72.064 29.918 76.322 68.267H137.011c4.258-38.349 36.856-68.267 76.322-68.267zM307.2 230.4c0 4.71 3.814 8.533 8.533 8.533s8.533-3.823 8.533-8.533v-42.667H358.4V230.4c0 4.71 3.814 8.533 8.533 8.533s8.533-3.823 8.533-8.533v-51.2a8.53 8.53 0 00-8.533-8.533h-51.2a8.53 8.53 0 00-8.533 8.533v51.2zm-42.667 213.333A8.53 8.53 0 00256 435.2c-4.719 0-8.533 3.823-8.533 8.533s3.814 8.533 8.533 8.533a8.53 8.53 0 008.533-8.533z" data-original="#000000"/><path d="M384 256H128c-23.526 0-42.667 19.14-42.667 42.667V384a8.53 8.53 0 008.533 8.533H384c4.719 0 8.533-3.823 8.533-8.533s-3.814-8.533-8.533-8.533H102.4v-76.8c0-14.114 11.486-25.6 25.6-25.6h256c14.114 0 25.6 11.486 25.6 25.6v170.667c0 14.114-11.486 25.6-25.6 25.6H128c-14.114 0-25.6-11.486-25.6-25.6v-51.2c0-4.71-3.814-8.533-8.533-8.533s-8.533 3.823-8.533 8.533v51.2C85.333 492.86 104.474 512 128 512h256c23.526 0 42.667-19.14 42.667-42.667V298.667C426.667 275.14 407.526 256 384 256zM213.333 136.533a8.53 8.53 0 00-8.533 8.533v76.8h-25.6c-4.719 0-8.533 3.823-8.533 8.533s3.814 8.533 8.533 8.533h68.267c4.719 0 8.533-3.823 8.533-8.533s-3.814-8.533-8.533-8.533h-25.6v-76.8a8.531 8.531 0 00-8.534-8.533z" data-original="#000000"/></g></svg>