<svg xmlns="http://www.w3.org/2000/svg" width="512" height="512" viewBox="0 0 70 70"><g fill="#acacac"><path xmlns="http://www.w3.org/2000/svg" d="M57.925 22.574a3.81 3.81 0 00-3.806 3.806c0 1.745 1.194 3.205 2.806 3.646v8.832c0 1.04-.83 1.884-1.862 1.917a4.715 4.715 0 00-4.598-3.706h-5.942v-3.357h2.76c.822 0 1.613-.347 2.17-.951s.837-1.421.769-2.241L48.076 4.704A2.966 2.966 0 0045.138 2H24.862a2.966 2.966 0 00-2.938 2.704l-2.147 25.817a2.953 2.953 0 002.94 3.191h2.76v3.357h-5.942a4.715 4.715 0 00-4.598 3.706 1.921 1.921 0 01-1.862-1.917v-8.832c1.612-.441 2.806-1.9 2.806-3.646 0-2.099-1.707-3.806-3.806-3.806S8.27 24.281 8.27 26.38c0 1.745 1.194 3.205 2.805 3.646v8.832a3.925 3.925 0 003.858 3.917 4.716 4.716 0 004.602 3.718h14.463l.001 8.74c-1.173.738-4.456 2.793-7.193 4.506l-3.301 2.067a3.517 3.517 0 00-2.338-.9c-1.956 0-3.548 1.591-3.548 3.547S19.211 68 21.167 68s3.547-1.59 3.547-3.547c0-.332-.06-.647-.146-.952l3.3-2.066c3.039-1.903 4.94-3.094 6.132-3.87v3.502c-1.467.435-2.547 1.78-2.547 3.386C31.453 66.41 33.043 68 35 68s3.547-1.59 3.547-3.547c0-1.606-1.08-2.951-2.547-3.387V57.59l9.431 5.916a3.5 3.5 0 00-.145.948c0 1.956 1.591 3.547 3.547 3.547s3.548-1.59 3.548-3.547-1.592-3.548-3.548-3.548c-.901 0-1.716.349-2.343.905L36 55.23l-.002-8.737h14.467a4.716 4.716 0 004.602-3.718 3.924 3.924 0 003.858-3.917v-8.832c1.611-.441 2.805-1.9 2.805-3.646a3.81 3.81 0 00-3.805-3.806zM10.27 26.38c0-.996.81-1.806 1.805-1.806s1.806.81 1.806 1.806c0 .99-.81 1.796-1.806 1.796s-1.805-.806-1.805-1.796zM21.167 66a1.55 1.55 0 01-1.548-1.547 1.55 1.55 0 011.548-1.548 1.55 1.55 0 011.547 1.548A1.55 1.55 0 0121.167 66zm27.666-3.095a1.55 1.55 0 011.548 1.548A1.55 1.55 0 0148.833 66a1.55 1.55 0 01-1.547-1.547 1.55 1.55 0 011.547-1.548zm-12.286 1.548c0 .853-.694 1.547-1.547 1.547s-1.547-.694-1.547-1.547.694-1.548 1.547-1.548 1.547.695 1.547 1.548zM22.019 31.406a.944.944 0 01-.248-.72L23.916 4.87a.955.955 0 01.946-.87h20.276c.49 0 .905.382.946.87l2.145 25.815a.94.94 0 01-.248.721.939.939 0 01-.698.306H22.717a.939.939 0 01-.698-.306zm5.458 2.306h15.046v3.357H27.477zm22.988 10.781h-30.93c-1.495 0-2.712-1.217-2.712-2.712s1.217-2.712 2.712-2.712h30.93c1.495 0 2.712 1.217 2.712 2.712s-1.217 2.712-2.712 2.712zm7.46-16.317a1.803 1.803 0 01-1.806-1.796c0-.996.81-1.806 1.806-1.806s1.805.81 1.805 1.806c0 .99-.81 1.796-1.805 1.796z" data-original="#000000"/><path xmlns="http://www.w3.org/2000/svg" d="M29.75 11.823h10.5a1 1 0 100-2h-10.5a1 1 0 100 2zm-1.787 8.833h14.074a1 1 0 100-2H27.963a1 1 0 100 2z" data-original="#000000"/></g></svg>