<?xml version="1.0"?>
<svg xmlns="http://www.w3.org/2000/svg" xmlns:xlink="http://www.w3.org/1999/xlink" xmlns:svgjs="http://svgjs.com/svgjs" version="1.1" width="512" height="512" x="0" y="0" viewBox="0 0 511.999 511.999" style="enable-background:new 0 0 512 512" xml:space="preserve" class=""><g>
<g xmlns="http://www.w3.org/2000/svg">
	<g>
		<path d="M185.396,257.561c-4.142,0-7.5,3.358-7.5,7.5v12.778c0,4.142,3.358,7.5,7.5,7.5c4.142,0,7.5-3.358,7.5-7.5v-12.778    C192.896,260.919,189.538,257.561,185.396,257.561z" fill="#acacac" data-original="#000000" style="" class=""/>
	</g>
</g>
<g xmlns="http://www.w3.org/2000/svg">
	<g>
		<path d="M326.599,257.561c-4.142,0-7.5,3.358-7.5,7.5v12.778c0,4.142,3.358,7.5,7.5,7.5s7.5-3.358,7.5-7.5v-12.778    C334.099,260.919,330.741,257.561,326.599,257.561z" fill="#acacac" data-original="#000000" style="" class=""/>
	</g>
</g>
<g xmlns="http://www.w3.org/2000/svg">
	<g>
		<path d="M278.359,271.303c-3.119-2.726-7.857-2.408-10.583,0.711c-2.858,3.271-7.151,5.146-11.779,5.146    c-4.627,0-8.92-1.875-11.778-5.146c-2.726-3.119-7.464-3.437-10.583-0.711c-3.119,2.726-3.437,7.464-0.711,10.583    c5.707,6.529,14.117,10.274,23.072,10.274c8.956,0,17.366-3.745,23.073-10.274C281.796,278.767,281.478,274.029,278.359,271.303z" fill="#acacac" data-original="#000000" style="" class=""/>
	</g>
</g>
<g xmlns="http://www.w3.org/2000/svg">
	<g>
		<circle cx="221.121" cy="90.979" r="11.539" fill="#acacac" data-original="#000000" style="" class=""/>
	</g>
</g>
<g xmlns="http://www.w3.org/2000/svg">
	<g>
		<path d="M384.444,233.319h-83.189c-1.479-21.027-5.943-40.327-12.788-54.944c-4.074-8.702-12.935-14.325-22.575-14.325h-2.977    c-1.071-20.424-3.764-35.12-8.621-46.757c6.625-4.325,11.212-11.254,12.496-19.364c1.508-9.519-1.799-18.905-8.721-25.317    c-0.735-6.25-3.478-12.009-7.92-16.508c-5.385-5.454-12.843-8.582-20.463-8.582c-4.838,0-9.529,1.24-13.755,3.614    c-1.843-0.369-3.705-0.555-5.567-0.555c-9.086,0-17.725,4.484-23.11,11.996c-4.641,6.474-6.304,14.323-4.762,22.009    c-4.563,8.177-4.837,18.061-0.553,26.603c4.344,8.663,12.586,14.395,22.017,15.522c5.355,5.813,12.749,9.082,20.791,9.083    c6.76,0,13.04-2.333,17.995-6.336c2.72,8.908,4.362,20.045,5.155,34.593h-1.79c-9.641-0.002-18.502,5.62-22.577,14.322    c-6.843,14.617-11.308,33.917-12.788,54.945h-83.189c-19.25,0-34.911,15.661-34.911,34.911v23.035    c0,10.822,8.802,19.626,19.622,19.626c6.842,0,12.804-0.15,19.097,3.173c12.9,6.813,28.636,6.733,41.537-0.037    c8.587-4.506,19.077-4.505,27.663,0c6.41,3.363,13.603,5.141,20.803,5.141c3.848,0,7.689-0.523,11.415-1.509v85.772    c0,0.016-0.132,1.663-4.866,4.965c-4.432,3.092-10.788,6.201-17.518,9.492c-10.702,5.234-21.769,10.646-29.638,17.943    c-5.034,4.668-6.669,11.807-4.167,18.188c2.493,6.355,8.521,10.461,15.355,10.461h128.108c6.834,0,12.862-4.106,15.355-10.461    c2.503-6.381,0.867-13.52-4.167-18.188c-7.869-7.296-18.935-12.708-29.637-17.943c-6.73-3.291-13.086-6.4-17.518-9.492    c-4.733-3.302-4.866-4.949-4.866-4.965v-85.771c3.725,0.986,7.566,1.509,11.414,1.509c7.2,0,14.394-1.778,20.803-5.141    c8.583-4.504,19.081-4.503,27.663,0c12.788,6.711,28.612,6.862,41.536,0.037c5.185-2.738,11.186-3.898,17.019-3.282    c11.43,1.208,21.7-8.047,21.7-19.517V268.23C419.354,248.98,403.693,233.319,384.444,233.319z M242.65,106.355    c-3.116,0.969-5.667,3.709-5.827,7.136c-2.671,5.336-7.981,7.3-12.08,7.3c-2.578,0-7.426-0.743-10.94-5.711    c-1.473-2.082-3.897-3.187-6.413-3.168c-5.202,0-9.705-2.785-12.044-7.451c-2.338-4.661-1.871-9.939,1.249-14.12    c1.477-1.978,1.885-4.556,1.092-6.894c-2.863-8.441,3.547-17.87,12.676-17.87c1.474,0,2.968,0.253,4.441,0.752    c2.338,0.792,4.916,0.385,6.894-1.092c2.384-1.779,5.146-2.72,7.987-2.72c7.515,0,13.677,6.231,13.582,13.71    c-0.031,2.468,1.154,4.794,3.169,6.219C255.425,88.805,253.112,103.103,242.65,106.355z M237.113,184.732    c1.617-3.453,5.146-5.685,8.99-5.685h19.787c3.845,0.001,7.374,2.232,8.99,5.685c5.974,12.758,9.931,29.792,11.345,48.584h-60.457    C227.183,214.521,231.14,197.49,237.113,184.732z M295.011,431.361c9.725,4.756,19.782,9.675,26.028,15.467    c0.195,0.181,0.787,0.729,0.402,1.711c-0.368,0.939-1.138,0.939-1.391,0.939H191.944c-0.253,0-1.022,0-1.391-0.939    c-0.385-0.981,0.207-1.53,0.402-1.711c6.247-5.792,16.303-10.71,26.028-15.467c15.836-7.745,30.793-15.06,30.793-27.932v-91.638    c0.101-0.029,0.202-0.057,0.303-0.084c5.249-1.445,10.905-1.426,16.138,0.085v91.638    C264.218,416.301,279.176,423.616,295.011,431.361z M404.354,291.264c0,2.72-2.436,4.886-5.13,4.599    c-8.77-0.921-17.796,0.817-25.594,4.936c-8.563,4.523-19.006,4.435-27.561-0.055c-12.909-6.775-28.695-6.774-41.604,0    c-8.532,4.478-19.042,4.526-27.665,0c-12.775-6.705-28.811-6.715-41.604,0c-8.494,4.458-19.039,4.527-27.665,0    c-12.902-6.771-28.704-6.77-41.604,0c-8.563,4.494-18.992,4.581-27.561,0.055c-7.798-4.119-16.828-5.858-25.592-4.936    c-2.766,0.296-5.131-1.881-5.131-4.599v-23.035c0-10.979,8.932-19.911,19.911-19.911h256.892c10.978,0,19.91,8.932,19.91,19.911    C404.354,268.229,404.354,291.208,404.354,291.264z" fill="#acacac" data-original="#000000" style="" class=""/>
	</g>
</g>
<g xmlns="http://www.w3.org/2000/svg">
	<g>
		<path d="M495.708,159.829c0,0-22.53-2.45-22.554-2.452c-9.89-1.075-19.058,6.32-20.13,16.183l-11.303,103.987    c-0.448,4.118,2.528,7.819,6.646,8.267c4.112,0.444,7.819-2.527,8.267-6.646l11.303-103.987c0.194-1.789,1.807-3.089,3.597-2.892    l22.554,2.452c1.789,0.194,3.086,1.808,2.892,3.597l-19.797,182.129c-0.808,7.427-7.05,13.028-14.521,13.028H346.361v-13.877    c-0.003-8.458,6.878-15.338,15.335-15.338h81.128c3.829,0,7.042-2.883,7.456-6.689l3.114-28.645    c0.448-4.118-2.527-7.819-6.646-8.267c-4.114-0.443-7.819,2.527-8.267,6.646l-2.387,21.956h-74.399    c-16.728,0-30.337,13.609-30.337,30.337v21.377c0,4.142,3.358,7.5,7.5,7.5h8.221v60.208c0,8.698,7.077,15.774,15.775,15.774    h13.796c8.698,0,15.775-7.076,15.775-15.774v-60.208h32.387v60.208c0,8.698,7.077,15.774,15.775,15.774h13.797    c8.698,0,15.775-7.076,15.775-15.774V387.53c11.643-3.032,20.577-12.961,21.934-25.443l19.797-182.129    C512.979,169.947,505.719,160.917,495.708,159.829z M377.426,448.703c0,0.427-0.348,0.774-0.775,0.774h-13.796    c-0.427,0-0.775-0.347-0.775-0.774v-60.208h15.346V448.703z M455.16,448.703c0,0.427-0.348,0.774-0.775,0.774h-13.797    c-0.427,0-0.775-0.347-0.775-0.774v-60.208h15.347V448.703z" fill="#acacac" data-original="#000000" style="" class=""/>
	</g>
</g>
<g xmlns="http://www.w3.org/2000/svg">
	<g>
		<path d="M150.298,329.28H75.899l-9.772-89.898c-0.448-4.118-4.141-7.09-8.267-6.646c-4.118,0.448-7.093,4.148-6.646,8.267    l10.499,96.587c0.414,3.806,3.627,6.689,7.456,6.689h81.128c8.457,0,15.337,6.88,15.337,15.337v13.877H49.334    c-7.471,0-13.714-5.601-14.521-13.028c0,0-19.766-181.838-19.797-182.129c-0.182-1.674,1.078-3.4,2.892-3.597l22.554-2.452    c1.789-0.195,3.402,1.103,3.597,2.892l3.894,35.823c0.447,4.118,4.143,7.094,8.267,6.646c4.118-0.448,7.093-4.148,6.646-8.267    c0,0-3.89-35.789-3.894-35.823c-1.074-9.882-10.256-17.256-20.13-16.183c0,0-22.535,2.45-22.554,2.452    c-9.896,1.076-17.259,10.231-16.183,20.13l19.797,182.13c1.357,12.482,10.29,22.412,21.934,25.443v61.172    c0,8.698,7.077,15.774,15.775,15.774h13.796c8.698,0,15.775-7.076,15.775-15.774v-60.208h32.387v60.208    c0,8.698,7.076,15.774,15.774,15.774h13.797c8.698,0,15.775-7.076,15.775-15.774v-60.208h8.22c4.142,0,7.5-3.358,7.5-7.5v-21.377    C180.636,342.889,167.026,329.28,150.298,329.28z M72.182,448.703c0,0.427-0.348,0.774-0.775,0.774H57.61    c-0.427,0-0.775-0.347-0.775-0.774v-60.208h15.347V448.703z M149.915,448.703c0,0.427-0.348,0.774-0.775,0.774h-13.797    c-0.427,0-0.774-0.347-0.774-0.774v-60.208h15.346V448.703z" fill="#acacac" data-original="#000000" style="" class=""/>
	</g>
</g>
<g xmlns="http://www.w3.org/2000/svg">
</g>
<g xmlns="http://www.w3.org/2000/svg">
</g>
<g xmlns="http://www.w3.org/2000/svg">
</g>
<g xmlns="http://www.w3.org/2000/svg">
</g>
<g xmlns="http://www.w3.org/2000/svg">
</g>
<g xmlns="http://www.w3.org/2000/svg">
</g>
<g xmlns="http://www.w3.org/2000/svg">
</g>
<g xmlns="http://www.w3.org/2000/svg">
</g>
<g xmlns="http://www.w3.org/2000/svg">
</g>
<g xmlns="http://www.w3.org/2000/svg">
</g>
<g xmlns="http://www.w3.org/2000/svg">
</g>
<g xmlns="http://www.w3.org/2000/svg">
</g>
<g xmlns="http://www.w3.org/2000/svg">
</g>
<g xmlns="http://www.w3.org/2000/svg">
</g>
<g xmlns="http://www.w3.org/2000/svg">
</g>
</g></svg>
