<?xml version="1.0"?>
<svg xmlns="http://www.w3.org/2000/svg" xmlns:xlink="http://www.w3.org/1999/xlink" xmlns:svgjs="http://svgjs.com/svgjs" version="1.1" width="512" height="512" x="0" y="0" viewBox="0 0 512 512" style="enable-background:new 0 0 512 512" xml:space="preserve" class=""><g>
<g xmlns="http://www.w3.org/2000/svg">
	<g>
		<g>
			<path d="M247.467,324.267c0,4.71,3.814,8.533,8.533,8.533c4.719,0,8.533-3.823,8.533-8.533s-3.814-8.533-8.533-8.533     C251.281,315.733,247.467,319.556,247.467,324.267z" fill="#acacac" data-original="#000000" style="" class=""/>
			<path d="M128,119.467h8.533v25.6c0,4.71,3.814,8.533,8.533,8.533s8.533-3.823,8.533-8.533v-25.6h145.067     c4.719,0,8.533-3.823,8.533-8.533c0-48.879-37.564-89.105-85.333-93.431V8.533c0-4.71-3.814-8.533-8.533-8.533     S204.8,3.823,204.8,8.533v8.969c-47.77,4.326-85.333,44.552-85.333,93.431C119.467,115.644,123.281,119.467,128,119.467z      M213.333,34.133c39.467,0,72.064,29.918,76.322,68.267H137.011C141.269,64.051,173.867,34.133,213.333,34.133z" fill="#acacac" data-original="#000000" style="" class=""/>
			<path d="M307.2,230.4c0,4.71,3.814,8.533,8.533,8.533s8.533-3.823,8.533-8.533v-42.667H358.4V230.4     c0,4.71,3.814,8.533,8.533,8.533s8.533-3.823,8.533-8.533v-51.2c0-4.71-3.814-8.533-8.533-8.533h-51.2     c-4.719,0-8.533,3.823-8.533,8.533V230.4z" fill="#acacac" data-original="#000000" style="" class=""/>
			<path d="M264.533,443.733c0-4.71-3.814-8.533-8.533-8.533c-4.719,0-8.533,3.823-8.533,8.533s3.814,8.533,8.533,8.533     C260.719,452.267,264.533,448.444,264.533,443.733z" fill="#acacac" data-original="#000000" style="" class=""/>
			<path d="M384,256H128c-23.526,0-42.667,19.14-42.667,42.667V384c0,4.71,3.814,8.533,8.533,8.533H384     c4.719,0,8.533-3.823,8.533-8.533s-3.814-8.533-8.533-8.533H102.4v-76.8c0-14.114,11.486-25.6,25.6-25.6h256     c14.114,0,25.6,11.486,25.6,25.6v170.667c0,14.114-11.486,25.6-25.6,25.6H128c-14.114,0-25.6-11.486-25.6-25.6v-51.2     c0-4.71-3.814-8.533-8.533-8.533s-8.533,3.823-8.533,8.533v51.2C85.333,492.86,104.474,512,128,512h256     c23.526,0,42.667-19.14,42.667-42.667V298.667C426.667,275.14,407.526,256,384,256z" fill="#acacac" data-original="#000000" style="" class=""/>
			<path d="M213.333,136.533c-4.719,0-8.533,3.823-8.533,8.533v76.8h-25.6c-4.719,0-8.533,3.823-8.533,8.533     s3.814,8.533,8.533,8.533h68.267c4.719,0,8.533-3.823,8.533-8.533s-3.814-8.533-8.533-8.533h-25.6v-76.8     C221.867,140.356,218.052,136.533,213.333,136.533z" fill="#acacac" data-original="#000000" style="" class=""/>
		</g>
	</g>
</g>
<g xmlns="http://www.w3.org/2000/svg">
</g>
<g xmlns="http://www.w3.org/2000/svg">
</g>
<g xmlns="http://www.w3.org/2000/svg">
</g>
<g xmlns="http://www.w3.org/2000/svg">
</g>
<g xmlns="http://www.w3.org/2000/svg">
</g>
<g xmlns="http://www.w3.org/2000/svg">
</g>
<g xmlns="http://www.w3.org/2000/svg">
</g>
<g xmlns="http://www.w3.org/2000/svg">
</g>
<g xmlns="http://www.w3.org/2000/svg">
</g>
<g xmlns="http://www.w3.org/2000/svg">
</g>
<g xmlns="http://www.w3.org/2000/svg">
</g>
<g xmlns="http://www.w3.org/2000/svg">
</g>
<g xmlns="http://www.w3.org/2000/svg">
</g>
<g xmlns="http://www.w3.org/2000/svg">
</g>
<g xmlns="http://www.w3.org/2000/svg">
</g>
</g></svg>
