<?xml version="1.0"?>
<svg xmlns="http://www.w3.org/2000/svg" xmlns:xlink="http://www.w3.org/1999/xlink" xmlns:svgjs="http://svgjs.com/svgjs" version="1.1" width="512" height="512" x="0" y="0" viewBox="0 0 70 70" style="enable-background:new 0 0 512 512" xml:space="preserve" class=""><g><path xmlns="http://www.w3.org/2000/svg" d="m57.9248047 22.5742188c-2.0986328 0-3.8056641 1.7070312-3.8056641 3.8056641 0 1.7454834 1.1939697 3.2047119 2.8056641 3.6459961v8.8325195c0 1.0396729-.8301392 1.883606-1.8618774 1.916687-.4627686-2.1155396-2.345459-3.7057495-4.5980835-3.7057495h-5.9414062v-3.3574219h2.7597656c.8222656 0 1.6123047-.3466797 2.1689453-.9511719s.8378906-1.4208984.7695312-2.2412109l-2.1455078-25.8154297c-.1259766-1.5166016-1.4169922-2.7041016-2.9384766-2.7041016h-20.2753906c-1.5214844 0-2.8125 1.1875-2.9384766 2.7041016l-2.1464844 25.8164062c-.0673828.8193359.2138672 1.6357422.7705078 2.2402344s1.3466797.9511719 2.1689453.9511719h2.7597656v3.3574219h-5.9414062c-2.2526245 0-4.1353149 1.59021-4.5980835 3.7057495-1.0317383-.0330811-1.8618774-.8770142-1.8618774-1.916687v-8.8325195c1.6116943-.4412842 2.8056641-1.9005127 2.8056641-3.6459961 0-2.0986328-1.7070312-3.8056641-3.8056641-3.8056641s-3.8056641 1.7070312-3.8056641 3.805664c0 1.7454834 1.1939697 3.2047119 2.8056641 3.6459961v8.8325195c0 2.1408691 1.7254639 3.8806152 3.8579102 3.9162598.4578857 2.1221924 2.3447266 3.7185059 4.6020508 3.7185059h14.4630127l.0010376 8.7397461c-1.1732178.7380981-4.4558105 2.7926025-7.1935425 4.5063477l-3.3010864 2.0665894c-.6257935-.5535278-1.4384155-.9005737-2.3375854-.9005737-1.9560547 0-3.5478516 1.5917969-3.5478516 3.5478516s1.5917968 3.5468748 3.5478515 3.5468748 3.546875-1.5908203 3.546875-3.546875c0-.3320923-.0606079-.6473389-.1463013-.9523926l3.2996216-2.0661621c3.0394287-1.9028931 4.9402466-3.0931396 6.1323242-3.8686523l.0003662 3.5006104c-1.467041.4351196-2.5467529 1.7801514-2.5467529 3.3865967 0 1.9560546 1.5908203 3.5468749 3.546875 3.5468749s3.546875-1.5908203 3.546875-3.546875c0-1.6065063-1.079834-2.9515991-2.5469971-3.3866577l-.0003662-3.4772339 9.4315186 5.9160156c-.0848999.3037109-.1448975.6174316-.1448975.947876 0 1.9560547 1.5908203 3.546875 3.546875 3.546875s3.5478516-1.5908203 3.5478516-3.546875-1.5917969-3.5478516-3.5478516-3.5478516c-.9014893 0-1.7161865.3486328-2.3425293.9046631l-10.491272-6.5808716-.0010376-8.7359009h14.4666748c2.2573242 0 4.144165-1.5963135 4.6020508-3.7185059 2.1324463-.0356445 3.8579102-1.7753906 3.8579102-3.9162598v-8.8325195c1.6116943-.4412842 2.8056641-1.9005127 2.8056641-3.6459961 0-2.0986327-1.7070313-3.8056639-3.8056641-3.8056639zm-47.6552735 3.805664c0-.9960938.8095703-1.8056641 1.8056641-1.8056641s1.8056641.8095703 1.8056641 1.8056641c0 .9902344-.8095703 1.7958984-1.8056641 1.7958984s-1.8056641-.805664-1.8056641-1.7958984zm10.897461 39.6201172c-.8535156 0-1.5478516-.6943359-1.5478516-1.546875 0-.8535156.6943359-1.5478516 1.5478516-1.5478516.8525391 0 1.546875.6943359 1.546875 1.5478516 0 .8525391-.694336 1.546875-1.546875 1.546875zm27.6660156-3.0947266c.8535156 0 1.5478516.6943359 1.5478516 1.5478516 0 .8525391-.6943359 1.546875-1.5478516 1.546875-.8525391 0-1.546875-.6943359-1.546875-1.546875 0-.8535156.694336-1.5478516 1.546875-1.5478516zm-12.2861328 1.5478516c0 .8525391-.6943359 1.546875-1.546875 1.546875s-1.546875-.6943359-1.546875-1.546875c0-.8535156.6943359-1.5478516 1.546875-1.5478516s1.546875.694336 1.546875 1.5478516zm-14.5283203-33.046875c-.1816406-.1982422-.2695312-.4541016-.2480469-.7207031l2.1455078-25.8154297c.0410156-.4882813.4560547-.8701172.9462891-.8701172h20.2753906c.4902344 0 .9052734.3818359.9462891.8701172l2.1445312 25.8144531c.0224609.2675781-.0654297.5234375-.2470703.7216797-.1816406.1972656-.4296875.3056641-.6982422.3056641h-24.5664062c-.2685547 0-.5166016-.1083985-.6982422-.3056641zm5.4580078 2.3056641h15.046875v3.3574219h-15.046875zm22.9882813 10.78125h-30.9296876c-1.4951172 0-2.7119141-1.2167969-2.7119141-2.7119141s1.2167969-2.7119141 2.7119141-2.7119141h30.9296875c1.4951172 0 2.7119141 1.2167969 2.7119141 2.7119141s-1.2167969 2.7119141-2.711914 2.7119141zm7.4599609-16.3173829c-.9960938 0-1.8056641-.8056641-1.8056641-1.7958984 0-.9960938.8095703-1.8056641 1.8056641-1.8056641s1.8056641.8095703 1.8056641 1.8056641c0 .9902344-.8095704 1.7958984-1.8056641 1.7958984z" fill="#acacac" data-original="#000000" style=""/><path xmlns="http://www.w3.org/2000/svg" d="m29.75 11.8232422h10.5c.5527344 0 1-.4472656 1-1s-.4472656-1-1-1h-10.5c-.5527344 0-1 .4472656-1 1s.4472656 1 1 1z" fill="#acacac" data-original="#000000" style=""/><path xmlns="http://www.w3.org/2000/svg" d="m27.9628906 20.65625h14.0742188c.5527344 0 1-.4472656 1-1s-.4472656-1-1-1h-14.0742188c-.5527344 0-1 .4472656-1 1s.4472656 1 1 1z" fill="#acacac" data-original="#000000" style=""/></g></svg>
